<svg id="Capa_1" enable-background="new 0 0 512.275 512.275" height="512" viewBox="0 0 512.275 512.275" width="512" xmlns="http://www.w3.org/2000/svg"><g><g><g><path d="m299.474 312.328h-139.973l-10.304 171.277h160.581zm-30.498 105.528c0 19.931-16.157 36.089-36.089 36.089h-4.928c-19.931 0-36.089-16.157-36.089-36.089v-24.834c0-19.931 16.157-36.089 36.089-36.089h4.928c19.931 0 36.089 16.157 36.089 36.089z" fill="#07b2cd"/><g fill="#0199b1"><path d="m219.655 357.904c-2.668-.629-5.445-.971-8.305-.971h-4.928c-19.931 0-36.089 16.157-36.089 36.089v24.834c0 19.931 16.157 36.089 36.089 36.089h4.928c2.859 0 5.637-.343 8.305-.971-15.926-3.753-27.784-18.045-27.784-35.117v-24.834c.001-17.073 11.858-31.366 27.784-35.119z"/><path d="m299.474 312.328h-21.537l10.304 171.277h21.537z"/></g><path d="m453.344 125.808v248.97h-445.84v-248.97c0-15.53 11.16-28.46 25.9-31.19 1.89-.36 3.84-.54 5.83-.54h382.39c17.52 0 31.72 14.21 31.72 31.73z" fill="#edf5fa"/><path d="m93.364 94.078v280.7h-59.96v-280.16c1.89-.36 3.84-.54 5.83-.54z" fill="#d0e7f2"/><path d="m421.619 94.081h-26.104c17.524 0 31.729 14.206 31.729 31.729v248.971h26.104v-248.971c0-17.524-14.206-31.729-31.729-31.729z" fill="#d0e7f2"/><path d="m7.5 362.698v13.019c0 16.415 13.307 29.722 29.722 29.722h386.404c16.415 0 29.722-13.307 29.722-29.722v-13.019z" fill="#30dde5"/><path d="m427.244 362.698v13.019c0 16.415-13.307 29.722-29.722 29.722h26.104c16.415 0 29.722-13.307 29.722-29.722v-13.019z" fill="#02c7dd"/></g><path d="m325.671 362.698h-266.357v-334.311c0-7.841 6.356-14.197 14.197-14.197h237.963c7.841 0 14.197 6.356 14.197 14.197z" fill="#6cf5c2"/><path d="m311.474 14.19h-21c7.841 0 14.197 6.356 14.197 14.197v334.311h21v-334.311c0-7.841-6.356-14.197-14.197-14.197z" fill="#00f2a6"/><g><path d="m365.662 19.736h44.533v222.946h-44.533z" fill="#af66da" transform="matrix(.707 .707 -.707 .707 206.401 -235.876)"/><path d="m285.364 130.452h222.946v19.333h-222.946z" fill="#9857bd" transform="matrix(.707 -.707 .707 .707 17.152 321.646)"/><path d="m324.849 225.778-31.489-31.49-5.978 37.468z" fill="#af66da"/><path d="m289.984 215.458-2.6 16.3 37.47-5.98-13.7-13.7-17.74 2.83c-1.69.27-3.15-1.19-2.88-2.88z" fill="#9857bd"/><path d="m501.814 34.456-17.132-17.132c-3.965-3.965-10.393-3.965-14.357 0l-24.315 24.314 31.489 31.489 24.314-24.314c3.965-3.964 3.965-10.392.001-14.357z" fill="#fe5ca7"/><path d="m501.814 34.456-17.132-17.132c-3.965-3.965-10.392-3.965-14.357 0l-6.464 6.464 10.668 10.668c3.965 3.965 3.965 10.393 0 14.357l-10.671 10.671 13.643 13.643 24.314-24.314c3.963-3.964 3.963-10.392-.001-14.357z" fill="#fe3d97"/></g><path d="m185.637 151.067h-81.33c-6.046 0-10.947-4.901-10.947-10.947v-58.815c0-6.046 4.901-10.947 10.947-10.947h81.33c6.046 0 10.947 4.901 10.947 10.947v58.815c0 6.046-4.901 10.947-10.947 10.947z" fill="#f6c2e0"/><path d="m185.637 70.358h-22.038c6.046 0 10.947 4.901 10.947 10.947v58.815c0 6.046-4.901 10.947-10.947 10.947h22.038c6.046 0 10.947-4.901 10.947-10.947v-58.815c0-6.046-4.901-10.947-10.947-10.947z" fill="#f6a6d2"/><path d="m293.786 319.768h-53.893c-6.046 0-10.947-4.901-10.947-10.947v-40.433c0-6.046 4.901-10.947 10.947-10.947h53.893c6.046 0 10.947 4.901 10.947 10.947v40.433c.001 6.046-4.901 10.947-10.947 10.947z" fill="#d0e7f2"/><path d="m293.786 257.441h-22.038c6.046 0 10.947 4.901 10.947 10.947v40.433c0 6.046-4.901 10.947-10.947 10.947h22.038c6.046 0 10.947-4.901 10.947-10.947v-40.433c.001-6.046-4.901-10.947-10.947-10.947z" fill="#b7d9eb"/></g><g><path d="m507.117 29.154-17.13-17.13c-6.884-6.883-18.083-6.883-24.969.001l-74.555 74.552h-57.29v-58.19c0-11.965-9.734-21.7-21.7-21.7h-237.959c-11.965 0-21.7 9.735-21.7 21.7v58.19h-12.58c-21.631 0-39.23 17.599-39.23 39.23l-.004 249.909c0 20.524 16.698 37.222 37.222 37.222h108.707l-3.798 63.167h-24.361c-12.949 0-24.922 7.019-31.248 18.316-2.024 3.614-.734 8.185 2.88 10.208 3.615 2.024 8.184.734 10.208-2.88 3.676-6.566 10.635-10.645 18.16-10.645h225.309c7.524 0 14.482 4.079 18.159 10.645 2.141 2.767 5.247 5.201 10.208 2.88 3.614-2.023 4.903-6.594 2.88-10.208-6.325-11.298-18.299-18.316-31.247-18.316h-26.242l-3.798-63.167h110.588c20.524 0 37.222-16.698 37.222-37.222l-.004-236.852c0-4.142-3.357-7.5-7.5-7.5s-7.5 3.358-7.5 7.5v216.333h-112.67v-127.137l173.95-173.946c6.869-6.888 6.866-18.085-.008-24.96zm-186.635 189.379c-.646.438-3.38.891-3.38.891l-7.949 1.264-12.733 2.032 3.506-23.328c.123-.819.506-1.576 1.092-2.161l2.95-2.943 147.04-147.04 20.883 20.883-147.04 147.04c-.001 0-3.536 2.798-4.369 3.362zm-281.249-116.955h12.58v253.62h-36.81v-229.39c0-13.361 10.87-24.23 24.23-24.23zm262.575 374.527h-144.65l3.798-63.167h23.418v4.919c0 24.036 19.554 43.59 43.59 43.59h4.92c24.036 0 43.59-19.554 43.59-43.59v-4.919h21.537zm-40.334-63.166v4.919c0 15.765-12.825 28.59-28.59 28.59h-4.92c-15.765 0-28.59-12.825-28.59-28.59v-4.919zm184.374-37.223c0 12.253-9.969 22.222-22.222 22.222h-386.404c-12.253.001-22.222-9.968-22.222-22.222v-5.519h430.848zm-379.035-20.518v-326.81c0-3.694 3.006-6.7 6.7-6.7h237.96c3.694 0 6.7 3.006 6.7 6.7v95.394c0 4.142 3.357 7.5 7.5 7.5s7.5-3.358 7.5-7.5v-22.204h42.29l-87.407 87.407c-1.143.617-6.361 33.463-7.073 35.271h-187.623c-4.142 0-7.5 3.358-7.5 7.5s3.358 7.5 7.5 7.5h194.022c.957.103 29.386-4.674 30.792-4.818v120.76zm429.697-311.683-14.011 14.012-20.884-20.884 14.011-14.011c1.035-1.035 2.721-1.035 3.754 0l17.13 17.13c1.034 1.033 1.031 2.72 0 3.753z"/><path d="m104.307 158.567h81.33c10.172 0 18.447-8.275 18.447-18.447v-58.815c0-10.172-8.275-18.447-18.447-18.447h-81.33c-10.171 0-18.447 8.275-18.447 18.447v58.815c0 10.172 8.275 18.447 18.447 18.447zm-3.447-77.262c0-1.901 1.546-3.447 3.447-3.447h81.33c1.901 0 3.447 1.546 3.447 3.447v58.815c0 1.901-1.546 3.447-3.447 3.447h-81.33c-1.9 0-3.447-1.546-3.447-3.447z"/><path d="m293.786 249.941h-53.893c-10.172 0-18.447 8.275-18.447 18.447v40.433c0 10.172 8.275 18.447 18.447 18.447h53.893c10.172 0 18.447-8.275 18.447-18.447v-40.433c0-10.172-8.275-18.447-18.447-18.447zm3.447 58.88c0 1.901-1.547 3.447-3.447 3.447h-53.893c-1.901 0-3.447-1.546-3.447-3.447v-40.433c0-1.901 1.546-3.447 3.447-3.447h53.893c1.9 0 3.447 1.546 3.447 3.447z"/><path d="m229.649 99.581h65.835c4.143 0 7.5-3.358 7.5-7.5s-3.357-7.5-7.5-7.5h-65.835c-4.142 0-7.5 3.358-7.5 7.5s3.358 7.5 7.5 7.5z"/><path d="m229.649 127.265h65.835c4.143 0 7.5-3.358 7.5-7.5s-3.357-7.5-7.5-7.5h-65.835c-4.142 0-7.5 3.358-7.5 7.5s3.358 7.5 7.5 7.5z"/><path d="m93.36 210.571h128.186c4.142 0 7.5-3.358 7.5-7.5s-3.358-7.5-7.5-7.5h-128.186c-4.142 0-7.5 3.358-7.5 7.5s3.358 7.5 7.5 7.5z"/><path d="m196.584 269.262h-48.561c-4.142 0-7.5 3.358-7.5 7.5s3.358 7.5 7.5 7.5h48.561c4.142 0 7.5-3.358 7.5-7.5s-3.358-7.5-7.5-7.5z"/><path d="m93.36 284.262h19.223c4.142 0 7.5-3.358 7.5-7.5s-3.358-7.5-7.5-7.5h-19.223c-4.142 0-7.5 3.358-7.5 7.5s3.358 7.5 7.5 7.5z"/><path d="m196.584 296.947h-103.224c-4.142 0-7.5 3.358-7.5 7.5s3.358 7.5 7.5 7.5h103.224c4.142 0 7.5-3.358 7.5-7.5s-3.358-7.5-7.5-7.5z"/></g></g></svg>